<svg xmlns="http://www.w3.org/2000/svg" viewBox="0 0 1440 320"><path fill="rgb(254, 139, 158)" fill-opacity="1" d="M0,288L30,277.3C60,267,120,245,180,250.7C240,256,300,288,360,304C420,320,480,320,540,314.7C600,309,660,299,720,256C780,213,840,139,900,122.7C960,107,1020,149,1080,149.3C1140,149,1200,107,1260,101.3C1320,96,1380,128,1410,144L1440,160L1440,0L1410,0C1380,0,1320,0,1260,0C1200,0,1140,0,1080,0C1020,0,960,0,900,0C840,0,780,0,720,0C660,0,600,0,540,0C480,0,420,0,360,0C300,0,240,0,180,0C120,0,60,0,30,0L0,0Z"></path></svg>