<svg xmlns="http://www.w3.org/2000/svg" viewBox="0 0 1440 320"><path fill="rgb(66, 243, 237)" fill-opacity="1" d="M0,160L17.1,165.3C34.3,171,69,181,103,197.3C137.1,213,171,235,206,234.7C240,235,274,213,309,181.3C342.9,149,377,107,411,80C445.7,53,480,43,514,58.7C548.6,75,583,117,617,128C651.4,139,686,117,720,117.3C754.3,117,789,139,823,160C857.1,181,891,203,926,208C960,213,994,203,1029,202.7C1062.9,203,1097,213,1131,224C1165.7,235,1200,245,1234,224C1268.6,203,1303,149,1337,117.3C1371.4,85,1406,75,1423,69.3L1440,64L1440,320L1422.9,320C1405.7,320,1371,320,1337,320C1302.9,320,1269,320,1234,320C1200,320,1166,320,1131,320C1097.1,320,1063,320,1029,320C994.3,320,960,320,926,320C891.4,320,857,320,823,320C788.6,320,754,320,720,320C685.7,320,651,320,617,320C582.9,320,549,320,514,320C480,320,446,320,411,320C377.1,320,343,320,309,320C274.3,320,240,320,206,320C171.4,320,137,320,103,320C68.6,320,34,320,17,320L0,320Z"></path></svg>